<?xml version="1.0" encoding="UTF-8" standalone="no"?>
<!-- Created with Inkscape (http://www.inkscape.org/) -->

<svg
   xmlns:dc="http://purl.org/dc/elements/1.1/"
   xmlns:cc="http://creativecommons.org/ns#"
   xmlns:rdf="http://www.w3.org/1999/02/22-rdf-syntax-ns#"
   xmlns:svg="http://www.w3.org/2000/svg"
   xmlns="http://www.w3.org/2000/svg"
   xmlns:sodipodi="http://sodipodi.sourceforge.net/DTD/sodipodi-0.dtd"
   xmlns:inkscape="http://www.inkscape.org/namespaces/inkscape"
   width="210mm"
   height="297mm"
   viewBox="0 0 744.09448819 1052.3622047"
   id="svg2"
   version="1.1"
   inkscape:version="0.91 r13725"
   sodipodi:docname="IS Icon.svg">
  <defs
     id="defs4" />
  <sodipodi:namedview
     id="base"
     pagecolor="#ffffff"
     bordercolor="#666666"
     borderopacity="1.0"
     inkscape:pageopacity="0.0"
     inkscape:pageshadow="2"
     inkscape:zoom="0.7"
     inkscape:cx="341.3113"
     inkscape:cy="541.30698"
     inkscape:document-units="px"
     inkscape:current-layer="layer1"
     showgrid="false"
     inkscape:window-width="1536"
     inkscape:window-height="801"
     inkscape:window-x="-8"
     inkscape:window-y="-8"
     inkscape:window-maximized="1" />
  <metadata
     id="metadata7">
    <rdf:RDF>
      <cc:Work
         rdf:about="">
        <dc:format>image/svg+xml</dc:format>
        <dc:type
           rdf:resource="http://purl.org/dc/dcmitype/StillImage" />
        <dc:title></dc:title>
      </cc:Work>
    </rdf:RDF>
  </metadata>
  <g
     inkscape:label="Layer 1"
     inkscape:groupmode="layer"
     id="layer1">
    <rect
       style="opacity:1;fill:#2c3e50;fill-opacity:1;fill-rule:evenodd;stroke:none;stroke-width:3;stroke-linecap:round;stroke-linejoin:round;stroke-miterlimit:4;stroke-dasharray:none;stroke-dashoffset:0;stroke-opacity:1"
       id="rect4189"
       width="592.95953"
       height="592.95953"
       x="72.73098"
       y="218.25104"
       inkscape:export-xdpi="97.747299"
       inkscape:export-ydpi="97.747299" />
    <path
       style="fill:#e74c3c;fill-rule:evenodd;stroke:none;stroke-width:1px;stroke-linecap:butt;stroke-linejoin:miter;stroke-opacity:1;fill-opacity:1"
       d="m 175.26147,605.3697 367.69552,0.50508 -0.50507,104.55079 -1.01016,7.07107 -3.53553,10.6066 -4.54569,8.08122 -5.05076,8.08122 -8.08122,5.55584 -7.57614,6.56599 -14.14214,6.06091 -11.11168,2.52539 -257.5889,0 -12.6269,-3.53554 -10.6066,-4.04061 -9.09138,-6.56599 -9.09137,-9.09137 -6.56599,-9.59645 -5.05076,-11.11168 -2.02031,-14.14214 0,-10.10152 z"
       id="path4147"
       inkscape:connector-curvature="0" />
    <path
       style="fill:#bdc3c7;fill-rule:evenodd;stroke:none;stroke-width:1px;stroke-linecap:butt;stroke-linejoin:miter;stroke-opacity:1;fill-opacity:1"
       d="m 174.75639,605.3697 2.02031,-221.72848 1.01015,-6.56599 4.54568,-9.09138 5.55584,-8.58629 5.05077,-6.56599 7.07106,-5.05077 7.07107,-5.05076 304.05592,0.50508 5.05076,1.51523 6.06092,5.05076 8.08122,8.08122 5.05076,8.5863 3.53553,9.59645 2.52538,10.10152 2.02031,5.55584 0.50508,214.65742 z"
       id="path4149"
       inkscape:connector-curvature="0" />
    <path
       style="fill:#e74c3c;fill-rule:evenodd;stroke:none;stroke-width:1px;stroke-linecap:butt;stroke-linejoin:miter;stroke-opacity:1;fill-opacity:1"
       d="m 207.58635,301.81886 303.55084,-0.50507 0.50507,117.17769 -3.03045,12.62691 -4.04061,11.11168 -6.06092,9.09137 -6.56599,7.57614 -7.57614,7.57615 -11.11168,6.06091 -10.6066,3.53554 -11.61676,2.0203 -193.44421,-1.51523 -12.62691,-3.53553 -10.10152,-6.06092 -7.57615,-6.06091 -6.06091,-6.06092 -6.06092,-9.09137 -5.05076,-9.09137 -3.03046,-13.13199 0,-10.10152 z"
       id="path4151"
       inkscape:connector-curvature="0" />
    <path
       style="fill:#7f8c8d;fill-rule:evenodd;stroke:none;stroke-width:1px;stroke-linecap:butt;stroke-linejoin:miter;stroke-opacity:1;fill-opacity:1"
       d="m 255.35714,475.21935 0.35715,50.71428 32.14285,0 L 287.5,477.3622 Z"
       id="path4153"
       inkscape:connector-curvature="0" />
    <path
       style="fill:#7f8c8d;fill-rule:evenodd;stroke:none;stroke-width:1px;stroke-linecap:butt;stroke-linejoin:miter;stroke-opacity:1;fill-opacity:1"
       d="m 431.42857,478.07649 0.35714,48.21429 31.78572,-0.71429 0,-49.64286 -11.07143,2.5 z"
       id="path4155"
       inkscape:connector-curvature="0" />
    <path
       style="fill:#c0392b;fill-rule:evenodd;stroke:none;stroke-width:1px;stroke-linecap:butt;stroke-linejoin:miter;stroke-opacity:1;fill-opacity:1"
       d="m 247.85714,525.57649 0,31.42857 47.14286,0.35714 0,-31.78571 z"
       id="path4157"
       inkscape:connector-curvature="0" />
    <path
       style="fill:#7f8c8d;fill-rule:evenodd;stroke:none;stroke-width:1px;stroke-linecap:butt;stroke-linejoin:miter;stroke-opacity:1;fill-opacity:1"
       d="m 255.35714,572.3622 31.78572,1.07143 0.35714,-16.42857 -31.42857,0 z"
       id="path4159"
       inkscape:connector-curvature="0" />
    <path
       style="fill:#c0392b;fill-rule:evenodd;stroke:none;stroke-width:1px;stroke-linecap:butt;stroke-linejoin:miter;stroke-opacity:1;fill-opacity:1"
       d="m 423.57143,525.57649 0.35714,32.14286 47.5,0 -0.35714,-32.14286 z"
       id="path4161"
       inkscape:connector-curvature="0" />
    <path
       style="fill:#7f8c8d;fill-rule:evenodd;stroke:none;stroke-width:1px;stroke-linecap:butt;stroke-linejoin:miter;stroke-opacity:1;fill-opacity:1"
       d="m 431.42857,557.3622 -0.35714,16.42858 32.5,0 -0.71429,-16.42858 z"
       id="path4163"
       inkscape:connector-curvature="0" />
    <path
       style="fill:#7f8c8d;fill-opacity:1;fill-rule:evenodd;stroke:none;stroke-width:1px;stroke-linecap:butt;stroke-linejoin:miter;stroke-opacity:1"
       d="m 175.51311,708.87062 -12.12183,-1.51523 -9.09138,-6.56599 -7.57614,-9.09138 -3.53553,-10.6066 0,-8.33376 0.75761,-96.46957 1.76777,-8.58629 3.78807,-5.80838 5.80838,-5.55584 6.56599,-4.04061 9.34391,-3.28299 4.04061,-0.25254 z"
       id="path4165"
       inkscape:connector-curvature="0" />
    <path
       inkscape:connector-curvature="0"
       id="path4167"
       d="m 543.20953,708.87062 12.12183,-1.51523 9.09138,-6.56599 7.57614,-9.09138 3.53553,-10.6066 0,-8.33376 -0.75761,-96.46957 -1.76777,-8.58629 -3.78807,-5.80838 -5.80838,-5.55584 -6.56599,-4.04061 -9.34391,-3.28299 -4.04061,-0.25254 z"
       style="fill:#7f8c8d;fill-opacity:1;fill-rule:evenodd;stroke:none;stroke-width:1px;stroke-linecap:butt;stroke-linejoin:miter;stroke-opacity:1" />
    <path
       style="fill:#c0392b;fill-rule:evenodd;stroke:none;stroke-width:1px;stroke-linecap:butt;stroke-linejoin:miter;stroke-opacity:1;fill-opacity:1"
       d="m 287.89348,350.05365 143.44166,0.25253 0.50507,31.56727 -144.19927,-0.50507 z"
       id="path4169"
       inkscape:connector-curvature="0" />
    <path
       style="fill:#bdc3c7;fill-opacity:1;fill-rule:evenodd;stroke:none;stroke-width:0.73168534px;stroke-linecap:butt;stroke-linejoin:miter;stroke-opacity:1"
       d="m 323.89689,301.70504 -0.13442,-4.31809 1.74744,-5.58814 3.09162,-4.82613 2.55395,-1.27003 62.90775,-0.508 2.55394,2.03204 2.15069,3.81009 1.07535,4.82613 0.67209,5.84213 17.33996,0 -0.26884,-4.5721 -1.07534,-8.63622 -1.4786,-8.1282 -2.01628,-7.62018 -2.15069,-4.57212 -3.62929,-5.58813 -3.6293,-4.31811 -3.76371,-3.04807 -3.09162,-1.77805 -2.15069,0 -66.9403,0.25401 -3.36045,1.52404 -4.30138,3.81009 -2.95721,4.0641 -3.09162,4.57211 -2.28511,5.08013 -1.88185,5.58814 -1.20977,5.08012 -0.94093,5.33413 -0.80651,8.38221 -0.13441,4.82611 z"
       id="path4171"
       inkscape:connector-curvature="0" />
    <path
       style="fill:#bdc3c7;fill-rule:evenodd;stroke:none;stroke-width:1px;stroke-linecap:butt;stroke-linejoin:miter;stroke-opacity:1;fill-opacity:1"
       d="m 259.10413,643.7555 198.49497,0.50508 1.51523,69.70052 -1.51523,11.61676 -2.52538,5.05076 -3.53553,4.04061 -5.55584,3.53553 -7.07107,2.02031 -159.09902,0 -8.08123,-3.03046 -7.57614,-5.05076 -4.54569,-4.54569 -2.52538,-8.08122 -0.50507,-8.5863 z"
       id="path4173"
       inkscape:connector-curvature="0" />
    <path
       style="fill:none;fill-rule:evenodd;stroke:#000000;stroke-width:1px;stroke-linecap:butt;stroke-linejoin:miter;stroke-opacity:1"
       d="m 270.71429,663.79078 173.57142,0"
       id="path4175"
       inkscape:connector-curvature="0" />
    <path
       style="fill:#7f8c8d;fill-rule:evenodd;stroke:none;stroke-width:1px;stroke-linecap:butt;stroke-linejoin:miter;stroke-opacity:1;fill-opacity:1"
       d="m 427.14286,664.32649 -0.89286,15 1.07143,2.14286 3.75,1.42857 2.85714,-0.17857 1.07143,-0.89286 0.53572,-2.14286 -0.71429,-2.5 -1.96429,-13.21428 z"
       id="path4181"
       inkscape:connector-curvature="0" />
    <path
       style="fill:#bdc3c7;fill-rule:evenodd;stroke:none;stroke-width:1px;stroke-linecap:butt;stroke-linejoin:miter;stroke-opacity:1;fill-opacity:1"
       d="m 428.75,677.09435 0.53572,3.4375 4.01785,0.26785 0.3125,-1.42857 -0.71428,-2.90178 z"
       id="path4185"
       inkscape:connector-curvature="0" />
  </g>
</svg>
